<mxfile host="app.diagrams.net" agent="Mozilla/5.0 (Windows NT 10.0; Win64; x64) AppleWebKit/537.36 (KHTML, like Gecko) Chrome/134.0.0.0 Safari/537.36" version="26.2.2">
  <diagram name="Page-1" id="e9ZvTp-M6L-eFsYWaFMI">
    <mxGraphModel dx="1305" dy="1803" grid="1" gridSize="10" guides="1" tooltips="1" connect="1" arrows="1" fold="1" page="1" pageScale="1" pageWidth="850" pageHeight="1100" math="0" shadow="0">
      <root>
        <mxCell id="0" />
        <mxCell id="1" parent="0" />
        <mxCell id="uK1k9jwOUiWp4paPjUS2-35" style="edgeStyle=orthogonalEdgeStyle;rounded=0;orthogonalLoop=1;jettySize=auto;html=1;entryX=0;entryY=0.5;entryDx=0;entryDy=0;endArrow=none;endFill=0;" parent="1" edge="1">
          <mxGeometry relative="1" as="geometry">
            <mxPoint x="760" y="218" as="sourcePoint" />
            <mxPoint x="898" y="218" as="targetPoint" />
          </mxGeometry>
        </mxCell>
        <mxCell id="uK1k9jwOUiWp4paPjUS2-36" value="1" style="text;html=1;align=center;verticalAlign=middle;resizable=0;points=[];autosize=1;strokeColor=none;fillColor=none;" parent="1" vertex="1">
          <mxGeometry x="863" y="190" width="30" height="30" as="geometry" />
        </mxCell>
        <mxCell id="uK1k9jwOUiWp4paPjUS2-37" value="connects to" style="text;html=1;align=center;verticalAlign=middle;resizable=0;points=[];autosize=1;strokeColor=none;fillColor=none;" parent="1" vertex="1">
          <mxGeometry x="782" y="190" width="80" height="30" as="geometry" />
        </mxCell>
        <mxCell id="uK1k9jwOUiWp4paPjUS2-38" style="edgeStyle=orthogonalEdgeStyle;rounded=0;orthogonalLoop=1;jettySize=auto;html=1;entryX=0.005;entryY=1.231;entryDx=0;entryDy=0;endArrow=none;endFill=0;entryPerimeter=0;" parent="1" source="uK1k9jwOUiWp4paPjUS2-39" edge="1">
          <mxGeometry relative="1" as="geometry">
            <Array as="points">
              <mxPoint x="532" y="210" />
            </Array>
            <mxPoint x="531.9499999999998" y="206.00600000000009" as="targetPoint" />
          </mxGeometry>
        </mxCell>
        <mxCell id="uK1k9jwOUiWp4paPjUS2-39" value="MainMemory" style="swimlane;fontStyle=0;align=center;verticalAlign=top;childLayout=stackLayout;horizontal=1;startSize=26;horizontalStack=0;resizeParent=1;resizeLast=0;collapsible=1;marginBottom=0;rounded=0;shadow=0;strokeWidth=1;" parent="1" vertex="1">
          <mxGeometry x="158" y="-260" width="228" height="606" as="geometry">
            <mxRectangle x="230" y="140" width="160" height="26" as="alternateBounds" />
          </mxGeometry>
        </mxCell>
        <mxCell id="uK1k9jwOUiWp4paPjUS2-40" value="+frameSlots:List" style="text;align=left;verticalAlign=top;spacingLeft=4;spacingRight=4;overflow=hidden;rotatable=0;points=[[0,0.5],[1,0.5]];portConstraint=eastwest;" parent="uK1k9jwOUiWp4paPjUS2-39" vertex="1">
          <mxGeometry y="26" width="228" height="26" as="geometry" />
        </mxCell>
        <mxCell id="uK1k9jwOUiWp4paPjUS2-41" value="+offsetSlots:List" style="text;align=left;verticalAlign=top;spacingLeft=4;spacingRight=4;overflow=hidden;rotatable=0;points=[[0,0.5],[1,0.5]];portConstraint=eastwest;rounded=0;shadow=0;html=0;" parent="uK1k9jwOUiWp4paPjUS2-39" vertex="1">
          <mxGeometry y="52" width="228" height="26" as="geometry" />
        </mxCell>
        <mxCell id="uK1k9jwOUiWp4paPjUS2-42" value="+targetValues:List" style="text;align=left;verticalAlign=top;spacingLeft=4;spacingRight=4;overflow=hidden;rotatable=0;points=[[0,0.5],[1,0.5]];portConstraint=eastwest;rounded=0;shadow=0;html=0;" parent="uK1k9jwOUiWp4paPjUS2-39" vertex="1">
          <mxGeometry y="78" width="228" height="26" as="geometry" />
        </mxCell>
        <mxCell id="uK1k9jwOUiWp4paPjUS2-43" value="+blockColorChangers:List" style="text;align=left;verticalAlign=top;spacingLeft=4;spacingRight=4;overflow=hidden;rotatable=0;points=[[0,0.5],[1,0.5]];portConstraint=eastwest;" parent="uK1k9jwOUiWp4paPjUS2-39" vertex="1">
          <mxGeometry y="104" width="228" height="26" as="geometry" />
        </mxCell>
        <mxCell id="uK1k9jwOUiWp4paPjUS2-44" value="+BlocksToAssign:List" style="text;align=left;verticalAlign=top;spacingLeft=4;spacingRight=4;overflow=hidden;rotatable=0;points=[[0,0.5],[1,0.5]];portConstraint=eastwest;rounded=0;shadow=0;html=0;" parent="uK1k9jwOUiWp4paPjUS2-39" vertex="1">
          <mxGeometry y="130" width="228" height="26" as="geometry" />
        </mxCell>
        <mxCell id="uK1k9jwOUiWp4paPjUS2-45" value="+slotIndicesToAssign:List" style="text;align=left;verticalAlign=top;spacingLeft=4;spacingRight=4;overflow=hidden;rotatable=0;points=[[0,0.5],[1,0.5]];portConstraint=eastwest;rounded=0;shadow=0;html=0;" parent="uK1k9jwOUiWp4paPjUS2-39" vertex="1">
          <mxGeometry y="156" width="228" height="26" as="geometry" />
        </mxCell>
        <mxCell id="uK1k9jwOUiWp4paPjUS2-46" value="+slotTypesToAssign:List" style="text;align=left;verticalAlign=top;spacingLeft=4;spacingRight=4;overflow=hidden;rotatable=0;points=[[0,0.5],[1,0.5]];portConstraint=eastwest;rounded=0;shadow=0;html=0;" parent="uK1k9jwOUiWp4paPjUS2-39" vertex="1">
          <mxGeometry y="182" width="228" height="26" as="geometry" />
        </mxCell>
        <mxCell id="uK1k9jwOUiWp4paPjUS2-47" value="-slotToBlockMap:Dictionary" style="text;align=left;verticalAlign=top;spacingLeft=4;spacingRight=4;overflow=hidden;rotatable=0;points=[[0,0.5],[1,0.5]];portConstraint=eastwest;rounded=0;shadow=0;html=0;" parent="uK1k9jwOUiWp4paPjUS2-39" vertex="1">
          <mxGeometry y="208" width="228" height="26" as="geometry" />
        </mxCell>
        <mxCell id="uK1k9jwOUiWp4paPjUS2-48" value="-playerMovementScript:PlayerMovement" style="text;align=left;verticalAlign=top;spacingLeft=4;spacingRight=4;overflow=hidden;rotatable=0;points=[[0,0.5],[1,0.5]];portConstraint=eastwest;rounded=0;shadow=0;html=0;" parent="uK1k9jwOUiWp4paPjUS2-39" vertex="1">
          <mxGeometry y="234" width="228" height="26" as="geometry" />
        </mxCell>
        <mxCell id="uK1k9jwOUiWp4paPjUS2-49" value="" style="line;html=1;strokeWidth=1;align=left;verticalAlign=middle;spacingTop=-1;spacingLeft=3;spacingRight=3;rotatable=0;labelPosition=right;points=[];portConstraint=eastwest;" parent="uK1k9jwOUiWp4paPjUS2-39" vertex="1">
          <mxGeometry y="260" width="228" height="8" as="geometry" />
        </mxCell>
        <mxCell id="uK1k9jwOUiWp4paPjUS2-50" value="-Start()" style="text;align=left;verticalAlign=top;spacingLeft=4;spacingRight=4;overflow=hidden;rotatable=0;points=[[0,0.5],[1,0.5]];portConstraint=eastwest;rounded=0;shadow=0;html=0;" parent="uK1k9jwOUiWp4paPjUS2-39" vertex="1">
          <mxGeometry y="268" width="228" height="26" as="geometry" />
        </mxCell>
        <mxCell id="uK1k9jwOUiWp4paPjUS2-51" value="+RegisterSlot()" style="text;align=left;verticalAlign=top;spacingLeft=4;spacingRight=4;overflow=hidden;rotatable=0;points=[[0,0.5],[1,0.5]];portConstraint=eastwest;rounded=0;shadow=0;html=0;" parent="uK1k9jwOUiWp4paPjUS2-39" vertex="1">
          <mxGeometry y="294" width="228" height="26" as="geometry" />
        </mxCell>
        <mxCell id="uK1k9jwOUiWp4paPjUS2-52" value="+UnregisterSlot()" style="text;align=left;verticalAlign=top;spacingLeft=4;spacingRight=4;overflow=hidden;rotatable=0;points=[[0,0.5],[1,0.5]];portConstraint=eastwest;rounded=0;shadow=0;html=0;" parent="uK1k9jwOUiWp4paPjUS2-39" vertex="1">
          <mxGeometry y="320" width="228" height="26" as="geometry" />
        </mxCell>
        <mxCell id="uK1k9jwOUiWp4paPjUS2-53" value="+GetBlockInSlot()" style="text;align=left;verticalAlign=top;spacingLeft=4;spacingRight=4;overflow=hidden;rotatable=0;points=[[0,0.5],[1,0.5]];portConstraint=eastwest;rounded=0;shadow=0;html=0;" parent="uK1k9jwOUiWp4paPjUS2-39" vertex="1">
          <mxGeometry y="346" width="228" height="26" as="geometry" />
        </mxCell>
        <mxCell id="uK1k9jwOUiWp4paPjUS2-54" value="+RemoveBlockFromSlot()" style="text;align=left;verticalAlign=top;spacingLeft=4;spacingRight=4;overflow=hidden;rotatable=0;points=[[0,0.5],[1,0.5]];portConstraint=eastwest;rounded=0;shadow=0;html=0;" parent="uK1k9jwOUiWp4paPjUS2-39" vertex="1">
          <mxGeometry y="372" width="228" height="26" as="geometry" />
        </mxCell>
        <mxCell id="uK1k9jwOUiWp4paPjUS2-55" value="+TryAddBlockToSlot()" style="text;align=left;verticalAlign=top;spacingLeft=4;spacingRight=4;overflow=hidden;rotatable=0;points=[[0,0.5],[1,0.5]];portConstraint=eastwest;rounded=0;shadow=0;html=0;" parent="uK1k9jwOUiWp4paPjUS2-39" vertex="1">
          <mxGeometry y="398" width="228" height="26" as="geometry" />
        </mxCell>
        <mxCell id="uK1k9jwOUiWp4paPjUS2-56" value="+IsSlotOccupied()" style="text;align=left;verticalAlign=top;spacingLeft=4;spacingRight=4;overflow=hidden;rotatable=0;points=[[0,0.5],[1,0.5]];portConstraint=eastwest;rounded=0;shadow=0;html=0;" parent="uK1k9jwOUiWp4paPjUS2-39" vertex="1">
          <mxGeometry y="424" width="228" height="26" as="geometry" />
        </mxCell>
        <mxCell id="uK1k9jwOUiWp4paPjUS2-61" value="-IsValidSlot()" style="text;align=left;verticalAlign=top;spacingLeft=4;spacingRight=4;overflow=hidden;rotatable=0;points=[[0,0.5],[1,0.5]];portConstraint=eastwest;rounded=0;shadow=0;html=0;" parent="uK1k9jwOUiWp4paPjUS2-39" vertex="1">
          <mxGeometry y="450" width="228" height="26" as="geometry" />
        </mxCell>
        <mxCell id="uK1k9jwOUiWp4paPjUS2-62" value="+ValidateFrameOffsetPairs()" style="text;align=left;verticalAlign=top;spacingLeft=4;spacingRight=4;overflow=hidden;rotatable=0;points=[[0,0.5],[1,0.5]];portConstraint=eastwest;rounded=0;shadow=0;html=0;" parent="uK1k9jwOUiWp4paPjUS2-39" vertex="1">
          <mxGeometry y="476" width="228" height="26" as="geometry" />
        </mxCell>
        <mxCell id="uK1k9jwOUiWp4paPjUS2-63" value="+ValidateFrameOffsetPair()" style="text;align=left;verticalAlign=top;spacingLeft=4;spacingRight=4;overflow=hidden;rotatable=0;points=[[0,0.5],[1,0.5]];portConstraint=eastwest;rounded=0;shadow=0;html=0;" parent="uK1k9jwOUiWp4paPjUS2-39" vertex="1">
          <mxGeometry y="502" width="228" height="26" as="geometry" />
        </mxCell>
        <mxCell id="uK1k9jwOUiWp4paPjUS2-64" value="+AssignAllBlockFromInspector()" style="text;align=left;verticalAlign=top;spacingLeft=4;spacingRight=4;overflow=hidden;rotatable=0;points=[[0,0.5],[1,0.5]];portConstraint=eastwest;rounded=0;shadow=0;html=0;" parent="uK1k9jwOUiWp4paPjUS2-39" vertex="1">
          <mxGeometry y="528" width="228" height="26" as="geometry" />
        </mxCell>
        <mxCell id="uK1k9jwOUiWp4paPjUS2-65" value="-AssignBlockToSlot()" style="text;align=left;verticalAlign=top;spacingLeft=4;spacingRight=4;overflow=hidden;rotatable=0;points=[[0,0.5],[1,0.5]];portConstraint=eastwest;rounded=0;shadow=0;html=0;" parent="uK1k9jwOUiWp4paPjUS2-39" vertex="1">
          <mxGeometry y="554" width="228" height="26" as="geometry" />
        </mxCell>
        <mxCell id="uK1k9jwOUiWp4paPjUS2-66" value="-UpdateBlockColorOnStart()" style="text;align=left;verticalAlign=top;spacingLeft=4;spacingRight=4;overflow=hidden;rotatable=0;points=[[0,0.5],[1,0.5]];portConstraint=eastwest;rounded=0;shadow=0;html=0;" parent="uK1k9jwOUiWp4paPjUS2-39" vertex="1">
          <mxGeometry y="580" width="228" height="26" as="geometry" />
        </mxCell>
        <mxCell id="uK1k9jwOUiWp4paPjUS2-57" value="1" style="text;html=1;align=center;verticalAlign=middle;resizable=0;points=[];autosize=1;strokeColor=none;fillColor=none;" parent="1" vertex="1">
          <mxGeometry x="398" y="180" width="30" height="30" as="geometry" />
        </mxCell>
        <mxCell id="uK1k9jwOUiWp4paPjUS2-58" value="1" style="text;html=1;align=center;verticalAlign=middle;resizable=0;points=[];autosize=1;strokeColor=none;fillColor=none;" parent="1" vertex="1">
          <mxGeometry x="501" y="180" width="30" height="30" as="geometry" />
        </mxCell>
        <mxCell id="uK1k9jwOUiWp4paPjUS2-59" value="connects to" style="text;html=1;align=center;verticalAlign=middle;resizable=0;points=[];autosize=1;strokeColor=none;fillColor=none;" parent="1" vertex="1">
          <mxGeometry x="427" y="180" width="80" height="30" as="geometry" />
        </mxCell>
        <mxCell id="uK1k9jwOUiWp4paPjUS2-60" value="1" style="text;html=1;align=center;verticalAlign=middle;resizable=0;points=[];autosize=1;strokeColor=none;fillColor=none;" parent="1" vertex="1">
          <mxGeometry x="759" y="190" width="30" height="30" as="geometry" />
        </mxCell>
        <mxCell id="uK1k9jwOUiWp4paPjUS2-67" value="SecondaryMemory" style="swimlane;fontStyle=0;align=center;verticalAlign=top;childLayout=stackLayout;horizontal=1;startSize=26;horizontalStack=0;resizeParent=1;resizeLast=0;collapsible=1;marginBottom=0;rounded=0;shadow=0;strokeWidth=1;" parent="1" vertex="1">
          <mxGeometry x="893" y="-260" width="228" height="606" as="geometry">
            <mxRectangle x="230" y="140" width="160" height="26" as="alternateBounds" />
          </mxGeometry>
        </mxCell>
        <mxCell id="uK1k9jwOUiWp4paPjUS2-68" value="+pageSlots:List" style="text;align=left;verticalAlign=top;spacingLeft=4;spacingRight=4;overflow=hidden;rotatable=0;points=[[0,0.5],[1,0.5]];portConstraint=eastwest;" parent="uK1k9jwOUiWp4paPjUS2-67" vertex="1">
          <mxGeometry y="26" width="228" height="26" as="geometry" />
        </mxCell>
        <mxCell id="uK1k9jwOUiWp4paPjUS2-69" value="+offsetSlots:List" style="text;align=left;verticalAlign=top;spacingLeft=4;spacingRight=4;overflow=hidden;rotatable=0;points=[[0,0.5],[1,0.5]];portConstraint=eastwest;rounded=0;shadow=0;html=0;" parent="uK1k9jwOUiWp4paPjUS2-67" vertex="1">
          <mxGeometry y="52" width="228" height="26" as="geometry" />
        </mxCell>
        <mxCell id="uK1k9jwOUiWp4paPjUS2-70" value="+targetValues:List" style="text;align=left;verticalAlign=top;spacingLeft=4;spacingRight=4;overflow=hidden;rotatable=0;points=[[0,0.5],[1,0.5]];portConstraint=eastwest;rounded=0;shadow=0;html=0;" parent="uK1k9jwOUiWp4paPjUS2-67" vertex="1">
          <mxGeometry y="78" width="228" height="26" as="geometry" />
        </mxCell>
        <mxCell id="uK1k9jwOUiWp4paPjUS2-71" value="+blockColorChangers:List" style="text;align=left;verticalAlign=top;spacingLeft=4;spacingRight=4;overflow=hidden;rotatable=0;points=[[0,0.5],[1,0.5]];portConstraint=eastwest;" parent="uK1k9jwOUiWp4paPjUS2-67" vertex="1">
          <mxGeometry y="104" width="228" height="26" as="geometry" />
        </mxCell>
        <mxCell id="uK1k9jwOUiWp4paPjUS2-72" value="+BlocksToAssign:List" style="text;align=left;verticalAlign=top;spacingLeft=4;spacingRight=4;overflow=hidden;rotatable=0;points=[[0,0.5],[1,0.5]];portConstraint=eastwest;rounded=0;shadow=0;html=0;" parent="uK1k9jwOUiWp4paPjUS2-67" vertex="1">
          <mxGeometry y="130" width="228" height="26" as="geometry" />
        </mxCell>
        <mxCell id="uK1k9jwOUiWp4paPjUS2-73" value="+slotIndicesToAssign:List" style="text;align=left;verticalAlign=top;spacingLeft=4;spacingRight=4;overflow=hidden;rotatable=0;points=[[0,0.5],[1,0.5]];portConstraint=eastwest;rounded=0;shadow=0;html=0;" parent="uK1k9jwOUiWp4paPjUS2-67" vertex="1">
          <mxGeometry y="156" width="228" height="26" as="geometry" />
        </mxCell>
        <mxCell id="uK1k9jwOUiWp4paPjUS2-74" value="+slotTypesToAssign:List" style="text;align=left;verticalAlign=top;spacingLeft=4;spacingRight=4;overflow=hidden;rotatable=0;points=[[0,0.5],[1,0.5]];portConstraint=eastwest;rounded=0;shadow=0;html=0;" parent="uK1k9jwOUiWp4paPjUS2-67" vertex="1">
          <mxGeometry y="182" width="228" height="26" as="geometry" />
        </mxCell>
        <mxCell id="uK1k9jwOUiWp4paPjUS2-75" value="-slotToBlockMap:Dictionary" style="text;align=left;verticalAlign=top;spacingLeft=4;spacingRight=4;overflow=hidden;rotatable=0;points=[[0,0.5],[1,0.5]];portConstraint=eastwest;rounded=0;shadow=0;html=0;" parent="uK1k9jwOUiWp4paPjUS2-67" vertex="1">
          <mxGeometry y="208" width="228" height="26" as="geometry" />
        </mxCell>
        <mxCell id="uK1k9jwOUiWp4paPjUS2-76" value="-playerMovementScript:PlayerMovement" style="text;align=left;verticalAlign=top;spacingLeft=4;spacingRight=4;overflow=hidden;rotatable=0;points=[[0,0.5],[1,0.5]];portConstraint=eastwest;rounded=0;shadow=0;html=0;" parent="uK1k9jwOUiWp4paPjUS2-67" vertex="1">
          <mxGeometry y="234" width="228" height="26" as="geometry" />
        </mxCell>
        <mxCell id="uK1k9jwOUiWp4paPjUS2-77" value="" style="line;html=1;strokeWidth=1;align=left;verticalAlign=middle;spacingTop=-1;spacingLeft=3;spacingRight=3;rotatable=0;labelPosition=right;points=[];portConstraint=eastwest;" parent="uK1k9jwOUiWp4paPjUS2-67" vertex="1">
          <mxGeometry y="260" width="228" height="8" as="geometry" />
        </mxCell>
        <mxCell id="uK1k9jwOUiWp4paPjUS2-78" value="-Start()" style="text;align=left;verticalAlign=top;spacingLeft=4;spacingRight=4;overflow=hidden;rotatable=0;points=[[0,0.5],[1,0.5]];portConstraint=eastwest;rounded=0;shadow=0;html=0;" parent="uK1k9jwOUiWp4paPjUS2-67" vertex="1">
          <mxGeometry y="268" width="228" height="26" as="geometry" />
        </mxCell>
        <mxCell id="uK1k9jwOUiWp4paPjUS2-79" value="+RegisterSlot()" style="text;align=left;verticalAlign=top;spacingLeft=4;spacingRight=4;overflow=hidden;rotatable=0;points=[[0,0.5],[1,0.5]];portConstraint=eastwest;rounded=0;shadow=0;html=0;" parent="uK1k9jwOUiWp4paPjUS2-67" vertex="1">
          <mxGeometry y="294" width="228" height="26" as="geometry" />
        </mxCell>
        <mxCell id="uK1k9jwOUiWp4paPjUS2-80" value="+UnregisterSlot()" style="text;align=left;verticalAlign=top;spacingLeft=4;spacingRight=4;overflow=hidden;rotatable=0;points=[[0,0.5],[1,0.5]];portConstraint=eastwest;rounded=0;shadow=0;html=0;" parent="uK1k9jwOUiWp4paPjUS2-67" vertex="1">
          <mxGeometry y="320" width="228" height="26" as="geometry" />
        </mxCell>
        <mxCell id="uK1k9jwOUiWp4paPjUS2-81" value="+GetBlockInSlot()" style="text;align=left;verticalAlign=top;spacingLeft=4;spacingRight=4;overflow=hidden;rotatable=0;points=[[0,0.5],[1,0.5]];portConstraint=eastwest;rounded=0;shadow=0;html=0;" parent="uK1k9jwOUiWp4paPjUS2-67" vertex="1">
          <mxGeometry y="346" width="228" height="26" as="geometry" />
        </mxCell>
        <mxCell id="uK1k9jwOUiWp4paPjUS2-82" value="+RemoveBlockFromSlot()" style="text;align=left;verticalAlign=top;spacingLeft=4;spacingRight=4;overflow=hidden;rotatable=0;points=[[0,0.5],[1,0.5]];portConstraint=eastwest;rounded=0;shadow=0;html=0;" parent="uK1k9jwOUiWp4paPjUS2-67" vertex="1">
          <mxGeometry y="372" width="228" height="26" as="geometry" />
        </mxCell>
        <mxCell id="uK1k9jwOUiWp4paPjUS2-83" value="+TryAddBlockToSlot()" style="text;align=left;verticalAlign=top;spacingLeft=4;spacingRight=4;overflow=hidden;rotatable=0;points=[[0,0.5],[1,0.5]];portConstraint=eastwest;rounded=0;shadow=0;html=0;" parent="uK1k9jwOUiWp4paPjUS2-67" vertex="1">
          <mxGeometry y="398" width="228" height="26" as="geometry" />
        </mxCell>
        <mxCell id="uK1k9jwOUiWp4paPjUS2-84" value="+IsSlotOccupied()" style="text;align=left;verticalAlign=top;spacingLeft=4;spacingRight=4;overflow=hidden;rotatable=0;points=[[0,0.5],[1,0.5]];portConstraint=eastwest;rounded=0;shadow=0;html=0;" parent="uK1k9jwOUiWp4paPjUS2-67" vertex="1">
          <mxGeometry y="424" width="228" height="26" as="geometry" />
        </mxCell>
        <mxCell id="uK1k9jwOUiWp4paPjUS2-85" value="-IsValidSlot()" style="text;align=left;verticalAlign=top;spacingLeft=4;spacingRight=4;overflow=hidden;rotatable=0;points=[[0,0.5],[1,0.5]];portConstraint=eastwest;rounded=0;shadow=0;html=0;" parent="uK1k9jwOUiWp4paPjUS2-67" vertex="1">
          <mxGeometry y="450" width="228" height="26" as="geometry" />
        </mxCell>
        <mxCell id="uK1k9jwOUiWp4paPjUS2-86" value="+ValidateFrameOffsetPairs()" style="text;align=left;verticalAlign=top;spacingLeft=4;spacingRight=4;overflow=hidden;rotatable=0;points=[[0,0.5],[1,0.5]];portConstraint=eastwest;rounded=0;shadow=0;html=0;" parent="uK1k9jwOUiWp4paPjUS2-67" vertex="1">
          <mxGeometry y="476" width="228" height="26" as="geometry" />
        </mxCell>
        <mxCell id="uK1k9jwOUiWp4paPjUS2-87" value="+ValidateFrameOffsetPair()" style="text;align=left;verticalAlign=top;spacingLeft=4;spacingRight=4;overflow=hidden;rotatable=0;points=[[0,0.5],[1,0.5]];portConstraint=eastwest;rounded=0;shadow=0;html=0;" parent="uK1k9jwOUiWp4paPjUS2-67" vertex="1">
          <mxGeometry y="502" width="228" height="26" as="geometry" />
        </mxCell>
        <mxCell id="uK1k9jwOUiWp4paPjUS2-88" value="+AssignAllBlockFromInspector()" style="text;align=left;verticalAlign=top;spacingLeft=4;spacingRight=4;overflow=hidden;rotatable=0;points=[[0,0.5],[1,0.5]];portConstraint=eastwest;rounded=0;shadow=0;html=0;" parent="uK1k9jwOUiWp4paPjUS2-67" vertex="1">
          <mxGeometry y="528" width="228" height="26" as="geometry" />
        </mxCell>
        <mxCell id="uK1k9jwOUiWp4paPjUS2-89" value="-AssignBlockToSlot()" style="text;align=left;verticalAlign=top;spacingLeft=4;spacingRight=4;overflow=hidden;rotatable=0;points=[[0,0.5],[1,0.5]];portConstraint=eastwest;rounded=0;shadow=0;html=0;" parent="uK1k9jwOUiWp4paPjUS2-67" vertex="1">
          <mxGeometry y="554" width="228" height="26" as="geometry" />
        </mxCell>
        <mxCell id="uK1k9jwOUiWp4paPjUS2-90" value="-UpdateBlockColorOnStart()" style="text;align=left;verticalAlign=top;spacingLeft=4;spacingRight=4;overflow=hidden;rotatable=0;points=[[0,0.5],[1,0.5]];portConstraint=eastwest;rounded=0;shadow=0;html=0;" parent="uK1k9jwOUiWp4paPjUS2-67" vertex="1">
          <mxGeometry y="580" width="228" height="26" as="geometry" />
        </mxCell>
        <mxCell id="uK1k9jwOUiWp4paPjUS2-91" value="PageTable" style="swimlane;fontStyle=0;align=center;verticalAlign=top;childLayout=stackLayout;horizontal=1;startSize=26;horizontalStack=0;resizeParent=1;resizeLast=0;collapsible=1;marginBottom=0;rounded=0;shadow=0;strokeWidth=1;" parent="1" vertex="1">
          <mxGeometry x="531" y="10" width="228" height="350" as="geometry">
            <mxRectangle x="230" y="140" width="160" height="26" as="alternateBounds" />
          </mxGeometry>
        </mxCell>
        <mxCell id="uK1k9jwOUiWp4paPjUS2-92" value="+pageSlots:List" style="text;align=left;verticalAlign=top;spacingLeft=4;spacingRight=4;overflow=hidden;rotatable=0;points=[[0,0.5],[1,0.5]];portConstraint=eastwest;" parent="uK1k9jwOUiWp4paPjUS2-91" vertex="1">
          <mxGeometry y="26" width="228" height="26" as="geometry" />
        </mxCell>
        <mxCell id="uK1k9jwOUiWp4paPjUS2-93" value="+frameSlots:List" style="text;align=left;verticalAlign=top;spacingLeft=4;spacingRight=4;overflow=hidden;rotatable=0;points=[[0,0.5],[1,0.5]];portConstraint=eastwest;rounded=0;shadow=0;html=0;" parent="uK1k9jwOUiWp4paPjUS2-91" vertex="1">
          <mxGeometry y="52" width="228" height="26" as="geometry" />
        </mxCell>
        <mxCell id="uK1k9jwOUiWp4paPjUS2-94" value="+pageBlocks:List" style="text;align=left;verticalAlign=top;spacingLeft=4;spacingRight=4;overflow=hidden;rotatable=0;points=[[0,0.5],[1,0.5]];portConstraint=eastwest;rounded=0;shadow=0;html=0;" parent="uK1k9jwOUiWp4paPjUS2-91" vertex="1">
          <mxGeometry y="78" width="228" height="26" as="geometry" />
        </mxCell>
        <mxCell id="uK1k9jwOUiWp4paPjUS2-95" value="+frameBlocks:List" style="text;align=left;verticalAlign=top;spacingLeft=4;spacingRight=4;overflow=hidden;rotatable=0;points=[[0,0.5],[1,0.5]];portConstraint=eastwest;" parent="uK1k9jwOUiWp4paPjUS2-91" vertex="1">
          <mxGeometry y="104" width="228" height="26" as="geometry" />
        </mxCell>
        <mxCell id="uK1k9jwOUiWp4paPjUS2-99" value="-slotToBlockMap:Dictionary" style="text;align=left;verticalAlign=top;spacingLeft=4;spacingRight=4;overflow=hidden;rotatable=0;points=[[0,0.5],[1,0.5]];portConstraint=eastwest;rounded=0;shadow=0;html=0;" parent="uK1k9jwOUiWp4paPjUS2-91" vertex="1">
          <mxGeometry y="130" width="228" height="26" as="geometry" />
        </mxCell>
        <mxCell id="uK1k9jwOUiWp4paPjUS2-100" value="-playerMovementScript:PlayerMovement" style="text;align=left;verticalAlign=top;spacingLeft=4;spacingRight=4;overflow=hidden;rotatable=0;points=[[0,0.5],[1,0.5]];portConstraint=eastwest;rounded=0;shadow=0;html=0;" parent="uK1k9jwOUiWp4paPjUS2-91" vertex="1">
          <mxGeometry y="156" width="228" height="26" as="geometry" />
        </mxCell>
        <mxCell id="uK1k9jwOUiWp4paPjUS2-101" value="" style="line;html=1;strokeWidth=1;align=left;verticalAlign=middle;spacingTop=-1;spacingLeft=3;spacingRight=3;rotatable=0;labelPosition=right;points=[];portConstraint=eastwest;" parent="uK1k9jwOUiWp4paPjUS2-91" vertex="1">
          <mxGeometry y="182" width="228" height="8" as="geometry" />
        </mxCell>
        <mxCell id="uK1k9jwOUiWp4paPjUS2-102" value="-Start()" style="text;align=left;verticalAlign=top;spacingLeft=4;spacingRight=4;overflow=hidden;rotatable=0;points=[[0,0.5],[1,0.5]];portConstraint=eastwest;rounded=0;shadow=0;html=0;" parent="uK1k9jwOUiWp4paPjUS2-91" vertex="1">
          <mxGeometry y="190" width="228" height="26" as="geometry" />
        </mxCell>
        <mxCell id="uK1k9jwOUiWp4paPjUS2-107" value="+TryAddBlockToSlot()" style="text;align=left;verticalAlign=top;spacingLeft=4;spacingRight=4;overflow=hidden;rotatable=0;points=[[0,0.5],[1,0.5]];portConstraint=eastwest;rounded=0;shadow=0;html=0;" parent="uK1k9jwOUiWp4paPjUS2-91" vertex="1">
          <mxGeometry y="216" width="228" height="26" as="geometry" />
        </mxCell>
        <mxCell id="uK1k9jwOUiWp4paPjUS2-108" value="-HandleFrameTeleport()" style="text;align=left;verticalAlign=top;spacingLeft=4;spacingRight=4;overflow=hidden;rotatable=0;points=[[0,0.5],[1,0.5]];portConstraint=eastwest;rounded=0;shadow=0;html=0;" parent="uK1k9jwOUiWp4paPjUS2-91" vertex="1">
          <mxGeometry y="242" width="228" height="26" as="geometry" />
        </mxCell>
        <mxCell id="uK1k9jwOUiWp4paPjUS2-109" value="-HandlePageTeleport()" style="text;align=left;verticalAlign=top;spacingLeft=4;spacingRight=4;overflow=hidden;rotatable=0;points=[[0,0.5],[1,0.5]];portConstraint=eastwest;rounded=0;shadow=0;html=0;" parent="uK1k9jwOUiWp4paPjUS2-91" vertex="1">
          <mxGeometry y="268" width="228" height="26" as="geometry" />
        </mxCell>
        <mxCell id="uK1k9jwOUiWp4paPjUS2-110" value="-IsValidSlot()" style="text;align=left;verticalAlign=top;spacingLeft=4;spacingRight=4;overflow=hidden;rotatable=0;points=[[0,0.5],[1,0.5]];portConstraint=eastwest;rounded=0;shadow=0;html=0;" parent="uK1k9jwOUiWp4paPjUS2-91" vertex="1">
          <mxGeometry y="294" width="228" height="26" as="geometry" />
        </mxCell>
        <mxCell id="uK1k9jwOUiWp4paPjUS2-111" value="+GetBlockInSlot()" style="text;align=left;verticalAlign=top;spacingLeft=4;spacingRight=4;overflow=hidden;rotatable=0;points=[[0,0.5],[1,0.5]];portConstraint=eastwest;rounded=0;shadow=0;html=0;" parent="uK1k9jwOUiWp4paPjUS2-91" vertex="1">
          <mxGeometry y="320" width="228" height="26" as="geometry" />
        </mxCell>
        <mxCell id="uK1k9jwOUiWp4paPjUS2-142" style="edgeStyle=orthogonalEdgeStyle;rounded=0;orthogonalLoop=1;jettySize=auto;html=1;endArrow=none;startFill=0;" parent="1" source="uK1k9jwOUiWp4paPjUS2-115" target="uK1k9jwOUiWp4paPjUS2-91" edge="1">
          <mxGeometry relative="1" as="geometry" />
        </mxCell>
        <mxCell id="uK1k9jwOUiWp4paPjUS2-115" value="BlockType" style="swimlane;fontStyle=0;align=center;verticalAlign=top;childLayout=stackLayout;horizontal=1;startSize=26;horizontalStack=0;resizeParent=1;resizeLast=0;collapsible=1;marginBottom=0;rounded=0;shadow=0;strokeWidth=1;" parent="1" vertex="1">
          <mxGeometry x="531" y="-260" width="228" height="190" as="geometry">
            <mxRectangle x="230" y="140" width="160" height="26" as="alternateBounds" />
          </mxGeometry>
        </mxCell>
        <mxCell id="uK1k9jwOUiWp4paPjUS2-116" value="+addressValue:int" style="text;align=left;verticalAlign=top;spacingLeft=4;spacingRight=4;overflow=hidden;rotatable=0;points=[[0,0.5],[1,0.5]];portConstraint=eastwest;" parent="uK1k9jwOUiWp4paPjUS2-115" vertex="1">
          <mxGeometry y="26" width="228" height="26" as="geometry" />
        </mxCell>
        <mxCell id="uK1k9jwOUiWp4paPjUS2-117" value="-textMesh:TMP_Text" style="text;align=left;verticalAlign=top;spacingLeft=4;spacingRight=4;overflow=hidden;rotatable=0;points=[[0,0.5],[1,0.5]];portConstraint=eastwest;rounded=0;shadow=0;html=0;" parent="uK1k9jwOUiWp4paPjUS2-115" vertex="1">
          <mxGeometry y="52" width="228" height="26" as="geometry" />
        </mxCell>
        <mxCell id="uK1k9jwOUiWp4paPjUS2-122" value="" style="line;html=1;strokeWidth=1;align=left;verticalAlign=middle;spacingTop=-1;spacingLeft=3;spacingRight=3;rotatable=0;labelPosition=right;points=[];portConstraint=eastwest;" parent="uK1k9jwOUiWp4paPjUS2-115" vertex="1">
          <mxGeometry y="78" width="228" height="8" as="geometry" />
        </mxCell>
        <mxCell id="uK1k9jwOUiWp4paPjUS2-123" value="-Start()" style="text;align=left;verticalAlign=top;spacingLeft=4;spacingRight=4;overflow=hidden;rotatable=0;points=[[0,0.5],[1,0.5]];portConstraint=eastwest;rounded=0;shadow=0;html=0;" parent="uK1k9jwOUiWp4paPjUS2-115" vertex="1">
          <mxGeometry y="86" width="228" height="26" as="geometry" />
        </mxCell>
        <mxCell id="uK1k9jwOUiWp4paPjUS2-124" value="+SetBlockType()" style="text;align=left;verticalAlign=top;spacingLeft=4;spacingRight=4;overflow=hidden;rotatable=0;points=[[0,0.5],[1,0.5]];portConstraint=eastwest;rounded=0;shadow=0;html=0;" parent="uK1k9jwOUiWp4paPjUS2-115" vertex="1">
          <mxGeometry y="112" width="228" height="26" as="geometry" />
        </mxCell>
        <mxCell id="uK1k9jwOUiWp4paPjUS2-125" value="+GetAddress()" style="text;align=left;verticalAlign=top;spacingLeft=4;spacingRight=4;overflow=hidden;rotatable=0;points=[[0,0.5],[1,0.5]];portConstraint=eastwest;rounded=0;shadow=0;html=0;" parent="uK1k9jwOUiWp4paPjUS2-115" vertex="1">
          <mxGeometry y="138" width="228" height="26" as="geometry" />
        </mxCell>
        <mxCell id="uK1k9jwOUiWp4paPjUS2-126" value="-UpdateAddressDisplay()" style="text;align=left;verticalAlign=top;spacingLeft=4;spacingRight=4;overflow=hidden;rotatable=0;points=[[0,0.5],[1,0.5]];portConstraint=eastwest;rounded=0;shadow=0;html=0;" parent="uK1k9jwOUiWp4paPjUS2-115" vertex="1">
          <mxGeometry y="164" width="228" height="26" as="geometry" />
        </mxCell>
        <mxCell id="uK1k9jwOUiWp4paPjUS2-129" value="BlockColorChanger" style="swimlane;fontStyle=0;align=center;verticalAlign=top;childLayout=stackLayout;horizontal=1;startSize=26;horizontalStack=0;resizeParent=1;resizeLast=0;collapsible=1;marginBottom=0;rounded=0;shadow=0;strokeWidth=1;" parent="1" vertex="1">
          <mxGeometry x="531" y="430" width="228" height="170" as="geometry">
            <mxRectangle x="230" y="140" width="160" height="26" as="alternateBounds" />
          </mxGeometry>
        </mxCell>
        <mxCell id="uK1k9jwOUiWp4paPjUS2-130" value="-objectRenderer:Renderer" style="text;align=left;verticalAlign=top;spacingLeft=4;spacingRight=4;overflow=hidden;rotatable=0;points=[[0,0.5],[1,0.5]];portConstraint=eastwest;" parent="uK1k9jwOUiWp4paPjUS2-129" vertex="1">
          <mxGeometry y="26" width="228" height="26" as="geometry" />
        </mxCell>
        <mxCell id="uK1k9jwOUiWp4paPjUS2-131" value="-blockMaterial:Material" style="text;align=left;verticalAlign=top;spacingLeft=4;spacingRight=4;overflow=hidden;rotatable=0;points=[[0,0.5],[1,0.5]];portConstraint=eastwest;rounded=0;shadow=0;html=0;" parent="uK1k9jwOUiWp4paPjUS2-129" vertex="1">
          <mxGeometry y="52" width="228" height="26" as="geometry" />
        </mxCell>
        <mxCell id="uK1k9jwOUiWp4paPjUS2-132" value="" style="line;html=1;strokeWidth=1;align=left;verticalAlign=middle;spacingTop=-1;spacingLeft=3;spacingRight=3;rotatable=0;labelPosition=right;points=[];portConstraint=eastwest;" parent="uK1k9jwOUiWp4paPjUS2-129" vertex="1">
          <mxGeometry y="78" width="228" height="8" as="geometry" />
        </mxCell>
        <mxCell id="uK1k9jwOUiWp4paPjUS2-133" value="-Awake()" style="text;align=left;verticalAlign=top;spacingLeft=4;spacingRight=4;overflow=hidden;rotatable=0;points=[[0,0.5],[1,0.5]];portConstraint=eastwest;rounded=0;shadow=0;html=0;" parent="uK1k9jwOUiWp4paPjUS2-129" vertex="1">
          <mxGeometry y="86" width="228" height="26" as="geometry" />
        </mxCell>
        <mxCell id="uK1k9jwOUiWp4paPjUS2-134" value="+SetTargetValue()" style="text;align=left;verticalAlign=top;spacingLeft=4;spacingRight=4;overflow=hidden;rotatable=0;points=[[0,0.5],[1,0.5]];portConstraint=eastwest;rounded=0;shadow=0;html=0;" parent="uK1k9jwOUiWp4paPjUS2-129" vertex="1">
          <mxGeometry y="112" width="228" height="26" as="geometry" />
        </mxCell>
        <mxCell id="uK1k9jwOUiWp4paPjUS2-135" value="-SetColorToBlue" style="text;align=left;verticalAlign=top;spacingLeft=4;spacingRight=4;overflow=hidden;rotatable=0;points=[[0,0.5],[1,0.5]];portConstraint=eastwest;rounded=0;shadow=0;html=0;" parent="uK1k9jwOUiWp4paPjUS2-129" vertex="1">
          <mxGeometry y="138" width="228" height="26" as="geometry" />
        </mxCell>
        <mxCell id="uK1k9jwOUiWp4paPjUS2-137" value="1" style="text;html=1;align=center;verticalAlign=middle;resizable=0;points=[];autosize=1;strokeColor=none;fillColor=none;" parent="1" vertex="1">
          <mxGeometry x="386" y="-190" width="30" height="30" as="geometry" />
        </mxCell>
        <mxCell id="uK1k9jwOUiWp4paPjUS2-138" value="0..*" style="text;html=1;align=center;verticalAlign=middle;resizable=0;points=[];autosize=1;strokeColor=none;fillColor=none;" parent="1" vertex="1">
          <mxGeometry x="491" y="-190" width="40" height="30" as="geometry" />
        </mxCell>
        <mxCell id="uK1k9jwOUiWp4paPjUS2-139" value="connects to" style="text;html=1;align=center;verticalAlign=middle;resizable=0;points=[];autosize=1;strokeColor=none;fillColor=none;" parent="1" vertex="1">
          <mxGeometry x="416" y="-190" width="80" height="30" as="geometry" />
        </mxCell>
        <mxCell id="uK1k9jwOUiWp4paPjUS2-147" value="1" style="text;html=1;align=center;verticalAlign=middle;resizable=0;points=[];autosize=1;strokeColor=none;fillColor=none;" parent="1" vertex="1">
          <mxGeometry x="850" y="-190" width="30" height="30" as="geometry" />
        </mxCell>
        <mxCell id="uK1k9jwOUiWp4paPjUS2-148" value="0..*" style="text;html=1;align=center;verticalAlign=middle;resizable=0;points=[];autosize=1;strokeColor=none;fillColor=none;" parent="1" vertex="1">
          <mxGeometry x="759" y="-190" width="40" height="30" as="geometry" />
        </mxCell>
        <mxCell id="uK1k9jwOUiWp4paPjUS2-149" value="connects to" style="text;html=1;align=center;verticalAlign=middle;resizable=0;points=[];autosize=1;strokeColor=none;fillColor=none;" parent="1" vertex="1">
          <mxGeometry x="783" y="-190" width="80" height="30" as="geometry" />
        </mxCell>
        <mxCell id="uK1k9jwOUiWp4paPjUS2-150" value="1" style="text;html=1;align=center;verticalAlign=middle;resizable=0;points=[];autosize=1;strokeColor=none;fillColor=none;" parent="1" vertex="1">
          <mxGeometry x="638" y="-30" width="30" height="30" as="geometry" />
        </mxCell>
        <mxCell id="uK1k9jwOUiWp4paPjUS2-151" value="0..*" style="text;html=1;align=center;verticalAlign=middle;resizable=0;points=[];autosize=1;strokeColor=none;fillColor=none;" parent="1" vertex="1">
          <mxGeometry x="743" y="-30" width="40" height="30" as="geometry" />
        </mxCell>
        <mxCell id="uK1k9jwOUiWp4paPjUS2-152" value="connects to" style="text;html=1;align=center;verticalAlign=middle;resizable=0;points=[];autosize=1;strokeColor=none;fillColor=none;" parent="1" vertex="1">
          <mxGeometry x="668" y="-30" width="80" height="30" as="geometry" />
        </mxCell>
        <mxCell id="uK1k9jwOUiWp4paPjUS2-153" style="edgeStyle=orthogonalEdgeStyle;rounded=0;orthogonalLoop=1;jettySize=auto;html=1;entryX=0.484;entryY=1.008;entryDx=0;entryDy=0;entryPerimeter=0;endArrow=none;startFill=0;" parent="1" source="uK1k9jwOUiWp4paPjUS2-129" target="uK1k9jwOUiWp4paPjUS2-66" edge="1">
          <mxGeometry relative="1" as="geometry" />
        </mxCell>
        <mxCell id="uK1k9jwOUiWp4paPjUS2-154" style="edgeStyle=orthogonalEdgeStyle;rounded=0;orthogonalLoop=1;jettySize=auto;html=1;entryX=0.512;entryY=1.008;entryDx=0;entryDy=0;entryPerimeter=0;endArrow=none;startFill=0;" parent="1" source="uK1k9jwOUiWp4paPjUS2-129" target="uK1k9jwOUiWp4paPjUS2-90" edge="1">
          <mxGeometry relative="1" as="geometry" />
        </mxCell>
        <mxCell id="uK1k9jwOUiWp4paPjUS2-156" value="1..*" style="text;html=1;align=center;verticalAlign=middle;resizable=0;points=[];autosize=1;strokeColor=none;fillColor=none;" parent="1" vertex="1">
          <mxGeometry x="920" y="400" width="40" height="30" as="geometry" />
        </mxCell>
        <mxCell id="uK1k9jwOUiWp4paPjUS2-157" value="1" style="text;html=1;align=center;verticalAlign=middle;resizable=0;points=[];autosize=1;strokeColor=none;fillColor=none;" parent="1" vertex="1">
          <mxGeometry x="810" y="400" width="30" height="30" as="geometry" />
        </mxCell>
        <mxCell id="uK1k9jwOUiWp4paPjUS2-158" value="connects to" style="text;html=1;align=center;verticalAlign=middle;resizable=0;points=[];autosize=1;strokeColor=none;fillColor=none;" parent="1" vertex="1">
          <mxGeometry x="840" y="400" width="80" height="30" as="geometry" />
        </mxCell>
        <mxCell id="uK1k9jwOUiWp4paPjUS2-159" value="1..*" style="text;html=1;align=center;verticalAlign=middle;resizable=0;points=[];autosize=1;strokeColor=none;fillColor=none;" parent="1" vertex="1">
          <mxGeometry x="310" y="400" width="40" height="30" as="geometry" />
        </mxCell>
        <mxCell id="uK1k9jwOUiWp4paPjUS2-160" value="1" style="text;html=1;align=center;verticalAlign=middle;resizable=0;points=[];autosize=1;strokeColor=none;fillColor=none;" parent="1" vertex="1">
          <mxGeometry x="425" y="400" width="30" height="30" as="geometry" />
        </mxCell>
        <mxCell id="uK1k9jwOUiWp4paPjUS2-161" value="connects to" style="text;html=1;align=center;verticalAlign=middle;resizable=0;points=[];autosize=1;strokeColor=none;fillColor=none;" parent="1" vertex="1">
          <mxGeometry x="345" y="400" width="80" height="30" as="geometry" />
        </mxCell>
        <mxCell id="Q0GjNtdDXsQuEe_PI_3y-1" style="edgeStyle=orthogonalEdgeStyle;rounded=0;orthogonalLoop=1;jettySize=auto;html=1;entryX=1;entryY=0.5;entryDx=0;entryDy=0;endArrow=none;startFill=0;" edge="1" parent="1" source="uK1k9jwOUiWp4paPjUS2-117" target="uK1k9jwOUiWp4paPjUS2-41">
          <mxGeometry relative="1" as="geometry" />
        </mxCell>
        <mxCell id="Q0GjNtdDXsQuEe_PI_3y-3" style="edgeStyle=orthogonalEdgeStyle;rounded=0;orthogonalLoop=1;jettySize=auto;html=1;entryX=0;entryY=0.5;entryDx=0;entryDy=0;endArrow=none;startFill=0;" edge="1" parent="1" source="uK1k9jwOUiWp4paPjUS2-117" target="uK1k9jwOUiWp4paPjUS2-69">
          <mxGeometry relative="1" as="geometry" />
        </mxCell>
      </root>
    </mxGraphModel>
  </diagram>
</mxfile>
